<svg width="1024" height="1024" viewBox="0 0 1024 1024" fill="none" xmlns="http://www.w3.org/2000/svg">
<rect width="1024" height="1024" rx="240" fill="black"/>
<path fill-rule="evenodd" clip-rule="evenodd" d="M387.08 734.189C403.662 739.001 426.86 739.901 511.5 739.901C596.14 739.901 619.338 739.001 635.92 734.189C683.345 720.426 720.426 683.345 734.189 635.92C739.001 619.338 739.901 596.14 739.901 511.5C739.901 426.86 739.001 403.662 734.189 387.08C720.426 339.655 683.345 302.574 635.92 288.811C619.338 283.999 596.14 283.099 511.5 283.099C426.86 283.099 403.662 283.999 387.08 288.811C339.655 302.574 302.574 339.655 288.811 387.08C283.999 403.662 283.099 426.86 283.099 511.5C283.099 596.14 283.999 619.338 288.811 635.92C302.574 683.345 339.655 720.426 387.08 734.189ZM202.282 361.97C193 393.954 193 433.136 193 511.5C193 589.864 193 629.046 202.282 661.03C224.647 738.097 284.903 798.354 361.97 820.718C393.954 830 433.136 830 511.5 830C589.864 830 629.046 830 661.03 820.718C738.097 798.354 798.354 738.097 820.718 661.03C830 629.046 830 589.864 830 511.5C830 433.136 830 393.954 820.718 361.97C798.354 284.903 738.097 224.647 661.03 202.282C629.046 193 589.864 193 511.5 193C433.136 193 393.954 193 361.97 202.282C284.903 224.647 224.647 284.903 202.282 361.97Z" fill="#27272A"/>
<path d="M557.084 739.759C605.814 739.361 623.096 738.005 636.224 734.189C683.576 720.426 720.598 683.345 734.34 635.92C739.144 619.338 740.042 596.14 740.042 511.5C740.042 426.86 739.144 403.662 734.34 387.08C720.598 339.655 683.576 302.574 636.224 288.811C623.096 284.995 605.814 283.639 557.084 283.241C532.204 283.038 512 262.93 512 238.05C512 213.169 532.183 192.923 557.063 193.09C606.613 193.423 636.178 194.981 661.296 202.282C738.241 224.647 798.403 284.903 820.733 361.97C830 393.954 830 433.136 830 511.5C830 589.864 830 629.046 820.733 661.03C798.403 738.097 738.241 798.354 661.296 820.718C636.178 828.019 606.613 829.577 557.063 829.91C532.183 830.077 512 809.831 512 784.951C512 760.07 532.204 739.962 557.084 739.759Z" fill="white"/>
</svg>
